<svg width="2000px" height="1276px"
 viewBox="0.00 0.00 844.55 539.09" xmlns="http://www.w3.org/2000/svg" xmlns:xlink="http://www.w3.org/1999/xlink">
<g id="graph0" class="graph" transform="scale(1.0 1.0) rotate(0) translate(4 535.09)">
<title>ContextMapGraph</title>
<polygon fill="white" stroke="transparent" points="-4,4 -4,-535.09 840.55,-535.09 840.55,4 -4,4"/>
<!-- GestionClientes -->
<g id="node1" class="node">
<title>GestionClientes</title>
<polygon fill="none" stroke="black" stroke-width="2" points="298.43,-23.38 303.11,-25.69 307.49,-28.06 311.55,-30.48 315.27,-32.93 318.64,-35.41 321.63,-37.91 324.24,-40.41 326.46,-42.92 328.27,-45.42 329.66,-47.91 330.64,-50.37 331.18,-52.79 331.3,-55.18 330.99,-57.52 330.25,-59.81 329.08,-62.04 327.49,-64.2 325.48,-66.3 323.07,-68.32 320.26,-70.27 317.06,-72.13 313.49,-73.91 309.57,-75.6 305.31,-77.2 300.73,-78.71 295.84,-80.13 290.67,-81.46 285.24,-82.69 279.58,-83.83 273.69,-84.87 267.62,-85.82 261.37,-86.67 254.98,-87.43 248.47,-88.1 241.87,-88.68 235.19,-89.16 228.46,-89.55 221.71,-89.86 214.95,-90.07 208.21,-90.2 201.52,-90.24 194.88,-90.2 188.33,-90.07 181.87,-89.86 175.54,-89.56 169.34,-89.18 163.28,-88.71 157.39,-88.17 151.68,-87.54 146.16,-86.83 140.84,-86.03 135.72,-85.16 130.83,-84.2 126.16,-83.17 121.72,-82.05 117.52,-80.85 113.57,-79.57 109.86,-78.21 106.4,-76.77 103.19,-75.25 100.23,-73.65 97.53,-71.98 95.09,-70.24 92.89,-68.42 90.96,-66.54 89.27,-64.58 87.84,-62.57 86.66,-60.49 85.74,-58.36 85.06,-56.17 84.63,-53.94 84.45,-51.67 84.52,-49.36 84.83,-47.01 85.39,-44.65 86.19,-42.27 87.24,-39.88 88.53,-37.48 90.06,-35.09 91.83,-32.71 93.84,-30.36 96.1,-28.04 98.59,-25.75 101.33,-23.51 104.3,-21.33 107.51,-19.21 110.95,-17.17 114.62,-15.21 118.52,-13.34 122.65,-11.56 127,-9.9 131.57,-8.34 136.35,-6.91 141.33,-5.61 146.51,-4.44 151.87,-3.41 157.42,-2.53 163.14,-1.79 169.01,-1.21 175.03,-0.78 181.18,-0.51 187.45,-0.4 193.82,-0.46 200.27,-0.67 206.79,-1.04 213.36,-1.58 219.96,-2.27 226.57,-3.11 233.16,-4.11 239.72,-5.25 246.23,-6.54 252.65,-7.96 258.97,-9.51 265.17,-11.18 271.22,-12.97 277.1,-14.87 282.78,-16.87 288.24,-18.96 293.47,-21.13 298.43,-23.38"/>
<text text-anchor="middle" x="199.49" y="-44.97" font-family="sans-serif" font-size="16.00">GestionClientes</text>
</g>
<!-- GestionEnvios -->
<g id="node2" class="node">
<title>GestionEnvios</title>
<polygon fill="none" stroke="black" stroke-width="2" points="573.63,-36.45 575.81,-39.18 577.67,-41.93 579.22,-44.68 580.43,-47.43 581.32,-50.16 581.86,-52.86 582.05,-55.53 581.9,-58.16 581.4,-60.73 580.55,-63.23 579.35,-65.66 577.8,-68.01 575.91,-70.28 573.67,-72.45 571.11,-74.51 568.22,-76.48 565.01,-78.33 561.49,-80.07 557.68,-81.69 553.58,-83.2 549.22,-84.58 544.6,-85.84 539.74,-86.97 534.65,-87.98 529.36,-88.87 523.89,-89.63 518.24,-90.27 512.44,-90.8 506.51,-91.2 500.47,-91.5 494.34,-91.68 488.14,-91.75 481.89,-91.72 475.62,-91.58 469.33,-91.35 463.06,-91.02 456.82,-90.6 450.64,-90.1 444.52,-89.51 438.5,-88.84 432.58,-88.09 426.79,-87.27 421.14,-86.38 415.65,-85.42 410.33,-84.4 405.2,-83.31 400.28,-82.16 395.56,-80.96 391.07,-79.69 386.81,-78.37 382.8,-77 379.04,-75.58 375.54,-74.1 372.31,-72.58 369.35,-71 366.66,-69.38 364.26,-67.71 362.14,-65.99 360.3,-64.23 358.75,-62.42 357.49,-60.57 356.52,-58.68 355.83,-56.75 355.42,-54.78 355.29,-52.78 355.45,-50.74 355.88,-48.67 356.58,-46.58 357.55,-44.46 358.78,-42.32 360.27,-40.16 362.02,-38 364.01,-35.83 366.24,-33.66 368.71,-31.5 371.41,-29.35 374.33,-27.22 377.46,-25.11 380.8,-23.04 384.35,-21.01 388.09,-19.03 392.01,-17.1 396.12,-15.24 400.39,-13.45 404.82,-11.74 409.41,-10.12 414.14,-8.6 419.01,-7.18 424,-5.88 429.11,-4.69 434.33,-3.63 439.64,-2.71 445.03,-1.92 450.49,-1.27 456.02,-0.78 461.6,-0.44 467.21,-0.26 472.85,-0.23 478.49,-0.37 484.14,-0.68 489.76,-1.15 495.36,-1.78 500.91,-2.58 506.4,-3.54 511.82,-4.65 517.14,-5.93 522.36,-7.35 527.45,-8.92 532.41,-10.64 537.22,-12.48 541.86,-14.46 546.31,-16.55 550.57,-18.75 554.62,-21.06 558.43,-23.45 562.01,-25.93 565.33,-28.48 568.38,-31.09 571.15,-33.75 573.63,-36.45"/>
<text text-anchor="middle" x="465.49" y="-44.97" font-family="sans-serif" font-size="16.00">GestionEnvios</text>
</g>
<!-- GestionInventario -->
<g id="node3" class="node">
<title>GestionInventario</title>
<polygon fill="none" stroke="black" stroke-width="2" points="116.72,-298.37 125.16,-297.67 133.63,-297.08 142.1,-296.63 150.53,-296.3 158.9,-296.1 167.16,-296.03 175.3,-296.09 183.27,-296.29 191.05,-296.62 198.62,-297.08 205.94,-297.68 213,-298.41 219.77,-299.27 226.23,-300.25 232.37,-301.36 238.16,-302.59 243.6,-303.94 248.68,-305.41 253.38,-306.98 257.7,-308.65 261.63,-310.43 265.17,-312.3 268.32,-314.25 271.08,-316.29 273.45,-318.4 275.44,-320.58 277.04,-322.81 278.28,-325.1 279.15,-327.44 279.66,-329.81 279.83,-332.21 279.67,-334.63 279.18,-337.06 278.38,-339.51 277.28,-341.94 275.9,-344.37 274.24,-346.78 272.32,-349.17 270.15,-351.52 267.74,-353.84 265.1,-356.11 262.25,-358.32 259.19,-360.48 255.93,-362.57 252.49,-364.59 248.86,-366.53 245.07,-368.4 241.1,-370.17 236.98,-371.86 232.71,-373.45 228.29,-374.94 223.72,-376.33 219.02,-377.62 214.17,-378.8 209.2,-379.87 204.09,-380.83 198.86,-381.68 193.51,-382.42 188.03,-383.04 182.44,-383.55 176.73,-383.95 170.92,-384.23 165,-384.39 158.99,-384.45 152.88,-384.39 146.69,-384.22 140.42,-383.95 134.09,-383.56 127.7,-383.07 121.27,-382.48 114.81,-381.79 108.34,-380.99 101.86,-380.1 95.4,-379.12 88.97,-378.04 82.59,-376.87 76.29,-375.62 70.08,-374.29 63.98,-372.88 58.02,-371.39 52.22,-369.82 46.6,-368.19 41.19,-366.49 36.02,-364.73 31.09,-362.91 26.45,-361.04 22.11,-359.11 18.1,-357.14 14.44,-355.12 11.15,-353.07 8.25,-350.98 5.75,-348.86 3.69,-346.71 2.07,-344.55 0.91,-342.36 0.22,-340.17 0.01,-337.97 0.29,-335.77 1.06,-333.58 2.34,-331.39 4.11,-329.22 6.38,-327.07 9.15,-324.95 12.41,-322.86 16.15,-320.81 20.35,-318.8 25.01,-316.84 30.11,-314.93 35.62,-313.09 41.54,-311.31 47.83,-309.61 54.47,-307.98 61.44,-306.43 68.7,-304.98 76.22,-303.62 83.98,-302.35 91.95,-301.19 100.08,-300.14 108.35,-299.2 116.72,-298.37"/>
<text text-anchor="middle" x="147.49" y="-337.4" font-family="sans-serif" font-size="16.00">GestionInventario</text>
</g>
<!-- GestionPagos -->
<g id="node4" class="node">
<title>GestionPagos</title>
<polygon fill="none" stroke="black" stroke-width="2" points="791.57,-81.13 786.4,-83.09 781.07,-84.94 775.58,-86.69 769.97,-88.32 764.25,-89.83 758.45,-91.21 752.58,-92.45 746.67,-93.55 740.73,-94.5 734.78,-95.3 728.86,-95.95 722.96,-96.44 717.11,-96.78 711.34,-96.95 705.64,-96.96 700.04,-96.81 694.55,-96.51 689.19,-96.04 683.96,-95.42 678.89,-94.65 673.97,-93.73 669.21,-92.67 664.63,-91.47 660.24,-90.14 656.03,-88.68 652.01,-87.1 648.2,-85.41 644.58,-83.62 641.17,-81.73 637.97,-79.75 634.99,-77.68 632.21,-75.55 629.65,-73.35 627.3,-71.1 625.17,-68.8 623.25,-66.47 621.55,-64.11 620.07,-61.72 618.8,-59.33 617.76,-56.93 616.92,-54.54 616.31,-52.15 615.91,-49.79 615.73,-47.45 615.77,-45.15 616.03,-42.88 616.51,-40.65 617.21,-38.47 618.13,-36.35 619.28,-34.29 620.64,-32.28 622.23,-30.34 624.04,-28.47 626.08,-26.67 628.35,-24.95 630.83,-23.3 633.54,-21.72 636.48,-20.23 639.63,-18.82 643.01,-17.48 646.6,-16.23 650.4,-15.06 654.42,-13.97 658.64,-12.96 663.05,-12.04 667.66,-11.2 672.46,-10.44 677.42,-9.76 682.56,-9.17 687.85,-8.66 693.28,-8.24 698.84,-7.9 704.52,-7.64 710.29,-7.47 716.16,-7.38 722.09,-7.38 728.08,-7.46 734.09,-7.63 740.12,-7.89 746.15,-8.24 752.15,-8.67 758.1,-9.2 763.98,-9.81 769.77,-10.52 775.45,-11.32 780.99,-12.21 786.38,-13.2 791.6,-14.27 796.61,-15.44 801.41,-16.71 805.98,-18.06 810.28,-19.51 814.32,-21.05 818.06,-22.67 821.49,-24.39 824.6,-26.19 827.38,-28.07 829.81,-30.02 831.88,-32.06 833.58,-34.16 834.91,-36.33 835.86,-38.57 836.42,-40.86 836.6,-43.19 836.39,-45.58 835.8,-48 834.82,-50.44 833.47,-52.91 831.74,-55.4 829.66,-57.89 827.21,-60.37 824.43,-62.85 821.31,-65.3 817.88,-67.73 814.15,-70.11 810.13,-72.45 805.84,-74.73 801.31,-76.94 796.55,-79.08 791.57,-81.13"/>
<text text-anchor="middle" x="718.49" y="-44.97" font-family="sans-serif" font-size="16.00">GestionPagos</text>
</g>
<!-- GestionPedidos -->
<g id="node5" class="node">
<title>GestionPedidos</title>
<polygon fill="none" stroke="black" stroke-width="2" points="575.95,-211.17 573.19,-213.85 570.14,-216.47 566.82,-219.02 563.24,-221.48 559.4,-223.86 555.32,-226.13 551.02,-228.28 546.5,-230.32 541.79,-232.23 536.89,-234.01 531.82,-235.65 526.6,-237.13 521.24,-238.47 515.76,-239.65 510.16,-240.67 504.47,-241.53 498.71,-242.23 492.87,-242.76 486.99,-243.13 481.07,-243.34 475.14,-243.39 469.19,-243.27 463.26,-243 457.34,-242.58 451.46,-242.02 445.63,-241.31 439.86,-240.46 434.17,-239.49 428.56,-238.39 423.06,-237.17 417.66,-235.84 412.39,-234.41 407.25,-232.89 402.27,-231.28 397.43,-229.59 392.77,-227.82 388.29,-226 383.99,-224.11 379.9,-222.18 376.01,-220.21 372.35,-218.2 368.91,-216.16 365.7,-214.1 362.75,-212.03 360.04,-209.94 357.6,-207.85 355.42,-205.76 353.52,-203.68 351.9,-201.6 350.57,-199.54 349.54,-197.49 348.79,-195.46 348.36,-193.46 348.22,-191.48 348.4,-189.52 348.88,-187.59 349.68,-185.69 350.79,-183.83 352.22,-181.99 353.95,-180.19 356,-178.43 358.35,-176.7 361.01,-175 363.97,-173.35 367.22,-171.73 370.76,-170.16 374.57,-168.63 378.66,-167.14 383.01,-165.69 387.62,-164.3 392.46,-162.95 397.53,-161.66 402.81,-160.42 408.3,-159.24 413.97,-158.12 419.81,-157.06 425.8,-156.08 431.93,-155.16 438.17,-154.33 444.52,-153.57 450.94,-152.9 457.42,-152.32 463.95,-151.83 470.49,-151.44 477.03,-151.15 483.55,-150.97 490.03,-150.9 496.45,-150.95 502.78,-151.11 509.01,-151.4 515.12,-151.81 521.08,-152.35 526.88,-153.02 532.5,-153.82 537.92,-154.75 543.12,-155.82 548.09,-157.02 552.81,-158.36 557.27,-159.82 561.45,-161.41 565.34,-163.13 568.93,-164.98 572.21,-166.94 575.17,-169.01 577.79,-171.2 580.09,-173.48 582.04,-175.86 583.64,-178.32 584.9,-180.87 585.8,-183.48 586.35,-186.15 586.56,-188.88 586.41,-191.64 585.91,-194.43 585.07,-197.24 583.9,-200.06 582.39,-202.87 580.55,-205.67 578.4,-208.44 575.95,-211.17"/>
<text text-anchor="middle" x="465.49" y="-191.18" font-family="sans-serif" font-size="16.00">GestionPedidos</text>
</g>
<!-- GestionPedidos&#45;&gt;GestionClientes -->
<g id="edge1" class="edge">
<title>GestionPedidos&#45;&gt;GestionClientes</title>
<path fill="none" stroke="black" stroke-width="2" d="M386.65,-164.58C361.75,-154.27 334.48,-141.9 310.49,-128.53 289.44,-116.8 267.54,-101.91 248.81,-88.25"/>
<text text-anchor="middle" x="385.99" y="-118.93" font-family="sans-serif" font-size="12.00"> &#160;&#160;&#160;&#160;&#160;&#160;&#160;&#160;&#160;&#160;&#160;&#160;&#160;&#160;&#160;&#160;&#160;&#160;&#160;&#160;&#160;&#160;&#160;&#160;&#160;&#160;&#160;&#160;&#160;&#160;&#160;&#160;&#160;&#160;&#160;&#160;&#160;&#160;&#160;</text>
<polygon fill="white" stroke="transparent" points="241.81,-79.25 241.81,-96.25 255.81,-96.25 255.81,-79.25 241.81,-79.25"/>
<text text-anchor="start" x="243.81" y="-84.65" font-family="sans-serif" font-size="12.00">D</text>
<polygon fill="white" stroke="transparent" points="379.65,-155.58 379.65,-172.58 393.65,-172.58 393.65,-155.58 379.65,-155.58"/>
<text text-anchor="start" x="381.65" y="-160.98" font-family="sans-serif" font-size="12.00">U</text>
</g>
<!-- GestionPedidos&#45;&gt;GestionEnvios -->
<g id="edge3" class="edge">
<title>GestionPedidos&#45;&gt;GestionEnvios</title>
<path fill="none" stroke="black" stroke-width="2" d="M465.49,-151.49C465.49,-132.55 465.49,-110.3 465.49,-91.45"/>
<text text-anchor="middle" x="540.99" y="-118.93" font-family="sans-serif" font-size="12.00"> &#160;&#160;&#160;&#160;&#160;&#160;&#160;&#160;&#160;&#160;&#160;&#160;&#160;&#160;&#160;&#160;&#160;&#160;&#160;&#160;&#160;&#160;&#160;&#160;&#160;&#160;&#160;&#160;&#160;&#160;&#160;&#160;&#160;&#160;&#160;&#160;&#160;&#160;&#160;</text>
<polygon fill="white" stroke="transparent" points="442.49,-81.45 442.49,-100.45 458.49,-100.45 458.49,-81.45 442.49,-81.45"/>
<polyline fill="none" stroke="black" points="458.49,-81.45 458.49,-100.45 "/>
<text text-anchor="start" x="445.49" y="-87.85" font-family="sans-serif" font-size="12.00">D</text>
<polygon fill="white" stroke="transparent" points="458.49,-81.45 458.49,-100.45 488.49,-100.45 488.49,-81.45 458.49,-81.45"/>
<polygon fill="none" stroke="black" points="458.49,-81.45 458.49,-100.45 488.49,-100.45 488.49,-81.45 458.49,-81.45"/>
<text text-anchor="start" x="461.49" y="-87.85" font-family="sans-serif" font-size="12.00">ACL</text>
<polygon fill="white" stroke="transparent" points="458.49,-142.49 458.49,-159.49 472.49,-159.49 472.49,-142.49 458.49,-142.49"/>
<text text-anchor="start" x="460.49" y="-147.89" font-family="sans-serif" font-size="12.00">U</text>
</g>
<!-- GestionPedidos&#45;&gt;GestionPagos -->
<g id="edge2" class="edge">
<title>GestionPedidos&#45;&gt;GestionPagos</title>
<path fill="none" stroke="black" stroke-width="2" d="M558.13,-159.82C579.18,-150.71 601.05,-140.14 620.49,-128.53 637.55,-118.35 654.86,-105.45 670.09,-93.06"/>
<text text-anchor="middle" x="712.99" y="-118.93" font-family="sans-serif" font-size="12.00"> &#160;&#160;&#160;&#160;&#160;&#160;&#160;&#160;&#160;&#160;&#160;&#160;&#160;&#160;&#160;&#160;&#160;&#160;&#160;&#160;&#160;&#160;&#160;&#160;&#160;&#160;&#160;&#160;&#160;&#160;&#160;&#160;&#160;&#160;&#160;&#160;&#160;&#160;&#160;</text>
<polygon fill="white" stroke="transparent" points="647.09,-83.06 647.09,-102.06 663.09,-102.06 663.09,-83.06 647.09,-83.06"/>
<polyline fill="none" stroke="black" points="663.09,-83.06 663.09,-102.06 "/>
<text text-anchor="start" x="650.09" y="-89.46" font-family="sans-serif" font-size="12.00">D</text>
<polygon fill="white" stroke="transparent" points="663.09,-83.06 663.09,-102.06 693.09,-102.06 693.09,-83.06 663.09,-83.06"/>
<polygon fill="none" stroke="black" points="663.09,-83.06 663.09,-102.06 693.09,-102.06 693.09,-83.06 663.09,-83.06"/>
<text text-anchor="start" x="666.09" y="-89.46" font-family="sans-serif" font-size="12.00">ACL</text>
<polygon fill="white" stroke="transparent" points="551.13,-150.82 551.13,-167.82 565.13,-167.82 565.13,-150.82 551.13,-150.82"/>
<text text-anchor="start" x="553.13" y="-156.22" font-family="sans-serif" font-size="12.00">U</text>
</g>
<!-- GestionProductos -->
<g id="node6" class="node">
<title>GestionProductos</title>
<polygon fill="none" stroke="black" stroke-width="2" points="152.8,-444.06 160.72,-442.97 168.73,-442 176.78,-441.16 184.86,-440.45 192.92,-439.86 200.94,-439.42 208.88,-439.11 216.73,-438.93 224.44,-438.9 232,-439.02 239.38,-439.27 246.55,-439.67 253.49,-440.2 260.19,-440.88 266.63,-441.7 272.78,-442.65 278.64,-443.74 284.18,-444.95 289.41,-446.29 294.31,-447.75 298.87,-449.33 303.09,-451.01 306.97,-452.8 310.5,-454.69 313.68,-456.67 316.51,-458.73 319,-460.87 321.15,-463.08 322.97,-465.35 324.45,-467.68 325.61,-470.04 326.45,-472.45 326.99,-474.88 327.22,-477.33 327.16,-479.8 326.82,-482.26 326.2,-484.73 325.32,-487.18 324.18,-489.61 322.79,-492.01 321.16,-494.38 319.3,-496.7 317.22,-498.97 314.91,-501.19 312.4,-503.35 309.67,-505.44 306.75,-507.46 303.63,-509.4 300.31,-511.25 296.81,-513.02 293.12,-514.71 289.25,-516.29 285.21,-517.78 280.98,-519.17 276.58,-520.46 272.01,-521.65 267.27,-522.73 262.36,-523.71 257.29,-524.57 252.05,-525.33 246.66,-525.99 241.12,-526.53 235.42,-526.97 229.59,-527.3 223.62,-527.53 217.53,-527.64 211.31,-527.66 204.99,-527.57 198.57,-527.38 192.06,-527.09 185.48,-526.7 178.85,-526.21 172.17,-525.62 165.47,-524.94 158.77,-524.17 152.08,-523.31 145.42,-522.37 138.82,-521.33 132.3,-520.21 125.88,-519.01 119.59,-517.73 113.45,-516.38 107.48,-514.94 101.71,-513.44 96.16,-511.86 90.87,-510.22 85.85,-508.51 81.12,-506.75 76.72,-504.92 72.67,-503.04 68.98,-501.1 65.67,-499.12 62.77,-497.09 60.3,-495.02 58.27,-492.92 56.69,-490.78 55.57,-488.61 54.93,-486.42 54.78,-484.21 55.11,-481.99 55.94,-479.76 57.27,-477.53 59.08,-475.3 61.39,-473.08 64.17,-470.88 67.44,-468.7 71.16,-466.54 75.33,-464.42 79.94,-462.35 84.96,-460.31 90.38,-458.34 96.17,-456.42 102.31,-454.57 108.78,-452.8 115.54,-451.1 122.58,-449.5 129.85,-447.98 137.33,-446.57 144.99,-445.26 152.8,-444.06"/>
<text text-anchor="middle" x="200.49" y="-481.23" font-family="sans-serif" font-size="16.00">GestionProductos</text>
</g>
<!-- GestionProductos&#45;&gt;GestionInventario -->
<g id="edge4" class="edge">
<title>GestionProductos&#45;&gt;GestionInventario</title>
<path fill="none" stroke="black" stroke-width="2" d="M184.16,-440.32C177.53,-422.57 169.9,-402.15 163.32,-384.55"/>
<text text-anchor="middle" x="218.49" y="-411.36" font-family="sans-serif" font-size="12.00">Shared Kernel</text>
</g>
<!-- GestionPromociones -->
<g id="node7" class="node">
<title>GestionPromociones</title>
<polygon fill="none" stroke="black" stroke-width="2" points="334.97,-320.91 339.31,-318.36 343.99,-315.89 348.98,-313.49 354.26,-311.18 359.83,-308.98 365.65,-306.89 371.72,-304.92 378,-303.07 384.48,-301.36 391.15,-299.79 397.97,-298.36 404.93,-297.09 412.01,-295.97 419.19,-295.01 426.44,-294.21 433.76,-293.58 441.12,-293.11 448.49,-292.81 455.88,-292.67 463.25,-292.69 470.58,-292.87 477.87,-293.21 485.1,-293.71 492.24,-294.35 499.29,-295.14 506.23,-296.07 513.05,-297.13 519.73,-298.31 526.26,-299.62 532.62,-301.03 538.81,-302.56 544.8,-304.18 550.6,-305.88 556.19,-307.67 561.55,-309.53 566.68,-311.46 571.57,-313.44 576.21,-315.47 580.58,-317.54 584.68,-319.65 588.49,-321.78 592.02,-323.93 595.25,-326.1 598.16,-328.26 600.77,-330.43 603.05,-332.6 605,-334.75 606.61,-336.89 607.88,-339.01 608.79,-341.1 609.36,-343.17 609.56,-345.21 609.39,-347.22 608.86,-349.18 607.96,-351.11 606.68,-353.01 605.03,-354.86 603.01,-356.66 600.61,-358.43 597.84,-360.14 594.69,-361.81 591.19,-363.44 587.31,-365.01 583.09,-366.54 578.51,-368.01 573.6,-369.44 568.35,-370.81 562.79,-372.13 556.92,-373.39 550.75,-374.6 544.31,-375.74 537.6,-376.83 530.65,-377.85 523.47,-378.81 516.09,-379.7 508.52,-380.52 500.78,-381.27 492.91,-381.94 484.91,-382.53 476.82,-383.04 468.67,-383.45 460.47,-383.78 452.25,-384.01 444.05,-384.15 435.88,-384.18 427.78,-384.11 419.76,-383.93 411.87,-383.64 404.11,-383.23 396.53,-382.71 389.15,-382.06 381.99,-381.3 375.07,-380.41 368.43,-379.4 362.07,-378.27 356.03,-377.01 350.32,-375.63 344.97,-374.13 339.99,-372.51 335.39,-370.77 331.2,-368.91 327.42,-366.95 324.06,-364.88 321.14,-362.71 318.67,-360.45 316.64,-358.1 315.07,-355.66 313.96,-353.16 313.3,-350.59 313.1,-347.97 313.36,-345.3 314.07,-342.59 315.22,-339.86 316.81,-337.11 318.83,-334.36 321.27,-331.62 324.12,-328.89 327.36,-326.19 330.99,-323.52 334.97,-320.91"/>
<text text-anchor="middle" x="465.49" y="-337.4" font-family="sans-serif" font-size="16.00">GestionPromociones</text>
</g>
<!-- GestionProductos&#45;&gt;GestionPromociones -->
<g id="edge5" class="edge">
<title>GestionProductos&#45;&gt;GestionPromociones</title>
<path fill="none" stroke="black" stroke-width="2" d="M276.79,-443.19C312.56,-424.05 355.06,-401.3 390.65,-382.25"/>
<text text-anchor="middle" x="415.99" y="-411.36" font-family="sans-serif" font-size="12.00"> &#160;&#160;&#160;&#160;&#160;&#160;&#160;&#160;&#160;&#160;&#160;&#160;&#160;&#160;&#160;&#160;&#160;&#160;&#160;&#160;&#160;&#160;&#160;&#160;&#160;&#160;&#160;&#160;&#160;&#160;&#160;&#160;&#160;&#160;&#160;&#160;&#160;&#160;&#160;</text>
<polygon fill="white" stroke="transparent" points="383.65,-373.25 383.65,-390.25 397.65,-390.25 397.65,-373.25 383.65,-373.25"/>
<text text-anchor="start" x="385.65" y="-378.65" font-family="sans-serif" font-size="12.00">D</text>
<polygon fill="white" stroke="transparent" points="252.79,-433.19 252.79,-452.19 268.79,-452.19 268.79,-433.19 252.79,-433.19"/>
<polyline fill="none" stroke="black" points="268.79,-433.19 268.79,-452.19 "/>
<text text-anchor="start" x="255.79" y="-439.59" font-family="sans-serif" font-size="12.00">U</text>
<polygon fill="white" stroke="transparent" points="268.79,-433.19 268.79,-452.19 301.79,-452.19 301.79,-433.19 268.79,-433.19"/>
<polygon fill="none" stroke="black" points="268.79,-433.19 268.79,-452.19 301.79,-452.19 301.79,-433.19 268.79,-433.19"/>
<text text-anchor="start" x="271.79" y="-439.59" font-family="sans-serif" font-size="12.00">OHS</text>
</g>
<!-- GestionPromociones&#45;&gt;GestionPedidos -->
<g id="edge6" class="edge">
<title>GestionPromociones&#45;&gt;GestionPedidos</title>
<path fill="none" stroke="black" stroke-width="2" d="M465.49,-292.58C465.49,-276.82 465.49,-259.3 465.49,-243.55"/>
<text text-anchor="middle" x="540.99" y="-264.83" font-family="sans-serif" font-size="12.00"> &#160;&#160;&#160;&#160;&#160;&#160;&#160;&#160;&#160;&#160;&#160;&#160;&#160;&#160;&#160;&#160;&#160;&#160;&#160;&#160;&#160;&#160;&#160;&#160;&#160;&#160;&#160;&#160;&#160;&#160;&#160;&#160;&#160;&#160;&#160;&#160;&#160;&#160;&#160;</text>
<polygon fill="white" stroke="transparent" points="458.49,-234.55 458.49,-251.55 472.49,-251.55 472.49,-234.55 458.49,-234.55"/>
<text text-anchor="start" x="460.49" y="-239.95" font-family="sans-serif" font-size="12.00">D</text>
<polygon fill="white" stroke="transparent" points="458.49,-283.58 458.49,-300.58 472.49,-300.58 472.49,-283.58 458.49,-283.58"/>
<text text-anchor="start" x="460.49" y="-288.98" font-family="sans-serif" font-size="12.00">U</text>
</g>
</g>
</svg>
