<svg width="2000px" height="1283px"
 viewBox="0.00 0.00 836.51 536.77" xmlns="http://www.w3.org/2000/svg" xmlns:xlink="http://www.w3.org/1999/xlink">
<g id="graph0" class="graph" transform="scale(1.0 1.0) rotate(0) translate(4 532.77)">
<title>ContextMapGraph</title>
<polygon fill="white" stroke="transparent" points="-4,4 -4,-532.77 832.51,-532.77 832.51,4 -4,4"/>
<!-- GestionClientes -->
<g id="node1" class="node">
<title>GestionClientes</title>
<polygon fill="none" stroke="black" stroke-width="2" points="171.52,-91.57 163.62,-91.53 155.78,-91.37 148.02,-91.08 140.39,-90.68 132.91,-90.16 125.61,-89.52 118.52,-88.77 111.67,-87.9 105.08,-86.92 98.77,-85.83 92.77,-84.63 87.1,-83.33 81.77,-81.93 76.8,-80.43 72.21,-78.84 68,-77.16 64.19,-75.4 60.78,-73.56 57.77,-71.64 55.18,-69.66 52.99,-67.62 51.22,-65.52 49.84,-63.37 48.87,-61.17 48.29,-58.94 48.1,-56.68 48.28,-54.39 48.83,-52.08 49.72,-49.76 50.96,-47.44 52.52,-45.11 54.38,-42.8 56.54,-40.49 58.98,-38.21 61.68,-35.96 64.62,-33.74 67.79,-31.56 71.17,-29.43 74.75,-27.35 78.51,-25.33 82.44,-23.37 86.52,-21.48 90.73,-19.67 95.08,-17.93 99.54,-16.28 104.1,-14.72 108.75,-13.25 113.49,-11.88 118.3,-10.61 123.18,-9.44 128.12,-8.38 133.12,-7.43 138.16,-6.6 143.25,-5.87 148.37,-5.27 153.53,-4.78 158.73,-4.4 163.95,-4.15 169.2,-4.02 174.46,-4.01 179.75,-4.11 185.05,-4.34 190.36,-4.68 195.67,-5.14 200.99,-5.71 206.3,-6.4 211.6,-7.2 216.88,-8.11 222.13,-9.13 227.35,-10.25 232.52,-11.47 237.64,-12.78 242.69,-14.19 247.65,-15.69 252.53,-17.27 257.29,-18.94 261.93,-20.68 266.43,-22.49 270.77,-24.37 274.94,-26.31 278.92,-28.31 282.68,-30.36 286.22,-32.45 289.51,-34.59 292.53,-36.76 295.27,-38.96 297.7,-41.18 299.82,-43.42 301.6,-45.67 303.02,-47.93 304.08,-50.19 304.76,-52.44 305.04,-54.68 304.93,-56.9 304.39,-59.1 303.44,-61.27 302.06,-63.4 300.25,-65.5 298.01,-67.54 295.34,-69.54 292.24,-71.47 288.71,-73.35 284.78,-75.16 280.43,-76.89 275.69,-78.55 270.58,-80.12 265.1,-81.61 259.27,-83.01 253.12,-84.31 246.67,-85.52 239.94,-86.63 232.95,-87.63 225.75,-88.52 218.34,-89.3 210.77,-89.97 203.07,-90.53 195.26,-90.96 187.37,-91.28 179.45,-91.48 171.52,-91.57"/>
<text text-anchor="middle" x="174.99" y="-43.93" font-family="sans-serif" font-size="16.00">GestionClientes</text>
</g>
<!-- GestionEnvios -->
<g id="node2" class="node">
<title>GestionEnvios</title>
<polygon fill="none" stroke="black" stroke-width="2" points="512.29,-83.74 506.35,-85.45 500.25,-87.04 494.04,-88.52 487.73,-89.87 481.35,-91.1 474.93,-92.19 468.47,-93.14 462.02,-93.94 455.59,-94.6 449.2,-95.11 442.88,-95.46 436.63,-95.66 430.49,-95.7 424.47,-95.59 418.59,-95.32 412.85,-94.9 407.28,-94.32 401.89,-93.59 396.69,-92.71 391.68,-91.68 386.89,-90.52 382.31,-89.22 377.96,-87.8 373.84,-86.25 369.95,-84.58 366.3,-82.8 362.89,-80.92 359.72,-78.94 356.8,-76.88 354.12,-74.74 351.68,-72.53 349.48,-70.26 347.52,-67.93 345.81,-65.56 344.33,-63.16 343.08,-60.73 342.07,-58.28 341.29,-55.82 340.73,-53.36 340.4,-50.91 340.29,-48.47 340.41,-46.06 340.74,-43.67 341.29,-41.32 342.06,-39.02 343.04,-36.76 344.23,-34.56 345.64,-32.41 347.25,-30.33 349.08,-28.32 351.12,-26.39 353.37,-24.53 355.83,-22.75 358.5,-21.05 361.38,-19.43 364.47,-17.9 367.76,-16.46 371.26,-15.11 374.96,-13.85 378.87,-12.69 382.97,-11.61 387.27,-10.63 391.75,-9.74 396.43,-8.94 401.28,-8.23 406.3,-7.62 411.49,-7.1 416.83,-6.67 422.32,-6.34 427.94,-6.09 433.68,-5.93 439.53,-5.87 445.47,-5.89 451.5,-6.01 457.58,-6.21 463.71,-6.5 469.86,-6.88 476.02,-7.35 482.17,-7.91 488.28,-8.55 494.34,-9.29 500.32,-10.11 506.2,-11.01 511.95,-12.01 517.57,-13.09 523.01,-14.26 528.27,-15.51 533.32,-16.85 538.13,-18.27 542.69,-19.77 546.98,-21.35 550.97,-23.02 554.65,-24.75 558,-26.57 561.01,-28.45 563.66,-30.4 565.94,-32.42 567.83,-34.5 569.33,-36.64 570.43,-38.83 571.12,-41.07 571.4,-43.35 571.26,-45.67 570.71,-48.02 569.75,-50.39 568.37,-52.78 566.6,-55.18 564.42,-57.59 561.86,-59.99 558.92,-62.38 555.62,-64.74 551.97,-67.08 547.98,-69.38 543.67,-71.64 539.07,-73.84 534.19,-75.98 529.05,-78.05 523.67,-80.03 518.08,-81.94 512.29,-83.74"/>
<text text-anchor="middle" x="446.99" y="-43.93" font-family="sans-serif" font-size="16.00">GestionEnvios</text>
</g>
<!-- GestionInventario -->
<g id="node3" class="node">
<title>GestionInventario</title>
<polygon fill="none" stroke="black" stroke-width="2" points="0.68,-332.88 1.56,-330.04 2.79,-327.22 4.39,-324.45 6.34,-321.74 8.63,-319.09 11.26,-316.51 14.22,-314.02 17.51,-311.63 21.12,-309.34 25.02,-307.16 29.23,-305.1 33.71,-303.17 38.46,-301.37 43.48,-299.71 48.73,-298.2 54.22,-296.82 59.91,-295.6 65.81,-294.53 71.89,-293.62 78.13,-292.85 84.53,-292.24 91.05,-291.79 97.69,-291.48 104.42,-291.32 111.23,-291.31 118.1,-291.43 125.01,-291.7 131.95,-292.09 138.88,-292.62 145.8,-293.27 152.68,-294.03 159.52,-294.9 166.27,-295.88 172.94,-296.96 179.5,-298.13 185.94,-299.38 192.23,-300.71 198.35,-302.12 204.31,-303.59 210.06,-305.12 215.61,-306.71 220.94,-308.34 226.02,-310.02 230.86,-311.74 235.42,-313.49 239.71,-315.27 243.71,-317.07 247.4,-318.9 250.78,-320.74 253.85,-322.6 256.58,-324.48 258.97,-326.36 261.02,-328.25 262.73,-330.15 264.07,-332.05 265.06,-333.95 265.69,-335.85 265.95,-337.76 265.85,-339.66 265.38,-341.56 264.56,-343.45 263.37,-345.35 261.82,-347.23 259.92,-349.1 257.67,-350.97 255.07,-352.82 252.14,-354.67 248.88,-356.49 245.31,-358.29 241.42,-360.08 237.23,-361.84 232.76,-363.57 228.01,-365.26 223,-366.92 217.74,-368.54 212.24,-370.11 206.53,-371.63 200.61,-373.1 194.51,-374.5 188.23,-375.83 181.81,-377.09 175.24,-378.27 168.56,-379.36 161.79,-380.36 154.93,-381.26 148.01,-382.06 141.05,-382.74 134.06,-383.31 127.08,-383.76 120.11,-384.07 113.17,-384.26 106.29,-384.31 99.49,-384.22 92.77,-383.98 86.17,-383.6 79.7,-383.06 73.38,-382.38 67.22,-381.55 61.24,-380.56 55.46,-379.42 49.9,-378.14 44.56,-376.71 39.47,-375.13 34.64,-373.41 30.08,-371.56 25.8,-369.58 21.82,-367.47 18.15,-365.25 14.79,-362.92 11.76,-360.49 9.06,-357.97 6.7,-355.37 4.69,-352.69 3.03,-349.95 1.74,-347.17 0.8,-344.34 0.22,-341.49 0.01,-338.62 0.16,-335.75 0.68,-332.88"/>
<text text-anchor="middle" x="132.99" y="-334.15" font-family="sans-serif" font-size="16.00">GestionInventario</text>
</g>
<!-- GestionPagos -->
<g id="node4" class="node">
<title>GestionPagos</title>
<polygon fill="none" stroke="black" stroke-width="2" points="630.15,-78.05 625.21,-75.98 620.52,-73.84 616.1,-71.64 611.96,-69.38 608.13,-67.08 604.62,-64.74 601.45,-62.38 598.62,-59.99 596.16,-57.59 594.07,-55.18 592.37,-52.78 591.05,-50.39 590.12,-48.02 589.59,-45.67 589.46,-43.35 589.73,-41.07 590.39,-38.83 591.45,-36.64 592.89,-34.5 594.71,-32.42 596.9,-30.4 599.44,-28.45 602.33,-26.57 605.55,-24.75 609.09,-23.02 612.93,-21.35 617.04,-19.77 621.42,-18.27 626.05,-16.85 630.9,-15.51 635.95,-14.26 641.18,-13.09 646.58,-12.01 652.11,-11.01 657.76,-10.11 663.5,-9.29 669.32,-8.55 675.19,-7.91 681.1,-7.35 687.02,-6.88 692.93,-6.5 698.82,-6.21 704.66,-6.01 710.45,-5.89 716.16,-5.87 721.78,-5.93 727.3,-6.09 732.7,-6.34 737.97,-6.67 743.1,-7.1 748.09,-7.62 752.92,-8.23 757.58,-8.94 762.07,-9.74 766.38,-10.63 770.51,-11.61 774.45,-12.69 778.2,-13.85 781.76,-15.11 785.12,-16.46 788.28,-17.9 791.25,-19.43 794.01,-21.05 796.58,-22.75 798.94,-24.53 801.11,-26.39 803.07,-28.32 804.82,-30.33 806.38,-32.41 807.73,-34.56 808.87,-36.76 809.82,-39.02 810.55,-41.32 811.08,-43.67 811.4,-46.06 811.51,-48.47 811.41,-50.91 811.09,-53.36 810.56,-55.82 809.8,-58.28 808.83,-60.73 807.63,-63.16 806.21,-65.56 804.56,-67.93 802.68,-70.26 800.57,-72.53 798.23,-74.74 795.65,-76.88 792.84,-78.94 789.8,-80.92 786.52,-82.8 783.01,-84.58 779.28,-86.25 775.32,-87.8 771.14,-89.22 766.74,-90.52 762.13,-91.68 757.33,-92.71 752.33,-93.59 747.15,-94.32 741.8,-94.9 736.29,-95.32 730.63,-95.59 724.84,-95.7 718.94,-95.66 712.95,-95.46 706.87,-95.11 700.73,-94.6 694.55,-93.94 688.35,-93.14 682.15,-92.19 675.98,-91.1 669.85,-89.87 663.79,-88.52 657.82,-87.04 651.96,-85.45 646.25,-83.74 640.69,-81.94 635.32,-80.03 630.15,-78.05"/>
<text text-anchor="middle" x="708.99" y="-43.93" font-family="sans-serif" font-size="16.00">GestionPagos</text>
</g>
<!-- GestionPedidos -->
<g id="node5" class="node">
<title>GestionPedidos</title>
<polygon fill="none" stroke="black" stroke-width="2" points="350.02,-218.29 345.43,-215.97 341.14,-213.6 337.16,-211.19 333.51,-208.74 330.21,-206.26 327.28,-203.76 324.72,-201.25 322.55,-198.74 320.77,-196.24 319.41,-193.76 318.45,-191.3 317.92,-188.87 317.8,-186.49 318.11,-184.14 318.84,-181.86 319.98,-179.63 321.54,-177.46 323.51,-175.37 325.87,-173.34 328.63,-171.4 331.76,-169.54 335.26,-167.76 339.1,-166.06 343.28,-164.46 347.77,-162.95 352.56,-161.53 357.62,-160.21 362.94,-158.97 368.5,-157.84 374.27,-156.79 380.22,-155.85 386.34,-154.99 392.6,-154.23 398.98,-153.56 405.46,-152.99 412,-152.51 418.6,-152.11 425.22,-151.81 431.84,-151.59 438.44,-151.46 445.01,-151.42 451.51,-151.47 457.93,-151.59 464.26,-151.81 470.47,-152.11 476.55,-152.49 482.48,-152.95 488.25,-153.5 493.85,-154.13 499.27,-154.84 504.48,-155.63 509.49,-156.51 514.29,-157.46 518.87,-158.5 523.22,-159.62 527.33,-160.82 531.21,-162.1 534.84,-163.46 538.24,-164.9 541.38,-166.42 544.28,-168.01 546.93,-169.68 549.32,-171.43 551.47,-173.24 553.37,-175.13 555.02,-177.08 556.42,-179.1 557.58,-181.17 558.49,-183.31 559.15,-185.49 559.57,-187.72 559.75,-190 559.68,-192.31 559.37,-194.65 558.83,-197.02 558.04,-199.4 557.02,-201.79 555.75,-204.18 554.25,-206.57 552.51,-208.95 550.54,-211.3 548.33,-213.63 545.88,-215.92 543.2,-218.15 540.29,-220.34 537.15,-222.45 533.78,-224.5 530.17,-226.46 526.35,-228.33 522.3,-230.1 518.04,-231.77 513.57,-233.32 508.88,-234.75 504,-236.05 498.92,-237.22 493.66,-238.25 488.23,-239.14 482.62,-239.87 476.87,-240.46 470.97,-240.88 464.94,-241.15 458.8,-241.26 452.55,-241.21 446.23,-240.99 439.84,-240.62 433.4,-240.09 426.93,-239.4 420.45,-238.55 413.99,-237.55 407.56,-236.41 401.19,-235.13 394.89,-233.71 388.69,-232.16 382.62,-230.48 376.69,-228.69 370.93,-226.8 365.36,-224.8 360,-222.71 354.88,-220.53 350.02,-218.29"/>
<text text-anchor="middle" x="446.99" y="-189.1" font-family="sans-serif" font-size="16.00">GestionPedidos</text>
</g>
<!-- GestionPedidos&#45;&gt;GestionClientes -->
<g id="edge2" class="edge">
<title>GestionPedidos&#45;&gt;GestionClientes</title>
<path fill="none" stroke="black" stroke-width="2" d="M361.59,-159.22C338.59,-149.51 313.99,-138.29 291.99,-126.47 270.94,-115.16 248.86,-101.12 229.62,-88.09"/>
<text text-anchor="middle" x="367.49" y="-116.87" font-family="sans-serif" font-size="12.00"> &#160;&#160;&#160;&#160;&#160;&#160;&#160;&#160;&#160;&#160;&#160;&#160;&#160;&#160;&#160;&#160;&#160;&#160;&#160;&#160;&#160;&#160;&#160;&#160;&#160;&#160;&#160;&#160;&#160;&#160;&#160;&#160;&#160;&#160;&#160;&#160;&#160;&#160;&#160;</text>
<polygon fill="white" stroke="transparent" points="222.62,-79.09 222.62,-96.09 236.62,-96.09 236.62,-79.09 222.62,-79.09"/>
<text text-anchor="start" x="224.62" y="-84.49" font-family="sans-serif" font-size="12.00">D</text>
<polygon fill="white" stroke="transparent" points="354.59,-150.22 354.59,-167.22 368.59,-167.22 368.59,-150.22 354.59,-150.22"/>
<text text-anchor="start" x="356.59" y="-155.62" font-family="sans-serif" font-size="12.00">U</text>
</g>
<!-- GestionPedidos&#45;&gt;GestionEnvios -->
<g id="edge1" class="edge">
<title>GestionPedidos&#45;&gt;GestionEnvios</title>
<path fill="none" stroke="black" stroke-width="2" d="M446.99,-151.26C446.99,-133.81 446.99,-113.34 446.99,-95.29"/>
<text text-anchor="middle" x="522.49" y="-116.87" font-family="sans-serif" font-size="12.00"> &#160;&#160;&#160;&#160;&#160;&#160;&#160;&#160;&#160;&#160;&#160;&#160;&#160;&#160;&#160;&#160;&#160;&#160;&#160;&#160;&#160;&#160;&#160;&#160;&#160;&#160;&#160;&#160;&#160;&#160;&#160;&#160;&#160;&#160;&#160;&#160;&#160;&#160;&#160;</text>
<polygon fill="white" stroke="transparent" points="423.99,-85.29 423.99,-104.29 439.99,-104.29 439.99,-85.29 423.99,-85.29"/>
<polyline fill="none" stroke="black" points="439.99,-85.29 439.99,-104.29 "/>
<text text-anchor="start" x="426.99" y="-91.69" font-family="sans-serif" font-size="12.00">D</text>
<polygon fill="white" stroke="transparent" points="439.99,-85.29 439.99,-104.29 469.99,-104.29 469.99,-85.29 439.99,-85.29"/>
<polygon fill="none" stroke="black" points="439.99,-85.29 439.99,-104.29 469.99,-104.29 469.99,-85.29 439.99,-85.29"/>
<text text-anchor="start" x="442.99" y="-91.69" font-family="sans-serif" font-size="12.00">ACL</text>
<polygon fill="white" stroke="transparent" points="439.99,-142.26 439.99,-159.26 453.99,-159.26 453.99,-142.26 439.99,-142.26"/>
<text text-anchor="start" x="441.99" y="-147.66" font-family="sans-serif" font-size="12.00">U</text>
</g>
<!-- GestionPedidos&#45;&gt;GestionPagos -->
<g id="edge3" class="edge">
<title>GestionPedidos&#45;&gt;GestionPagos</title>
<path fill="none" stroke="black" stroke-width="2" d="M529.11,-161.34C553.15,-151.31 579.1,-139.39 601.99,-126.47 621.89,-115.24 642.48,-101 660.23,-87.78"/>
<text text-anchor="middle" x="695.49" y="-116.87" font-family="sans-serif" font-size="12.00"> &#160;&#160;&#160;&#160;&#160;&#160;&#160;&#160;&#160;&#160;&#160;&#160;&#160;&#160;&#160;&#160;&#160;&#160;&#160;&#160;&#160;&#160;&#160;&#160;&#160;&#160;&#160;&#160;&#160;&#160;&#160;&#160;&#160;&#160;&#160;&#160;&#160;&#160;&#160;</text>
<polygon fill="white" stroke="transparent" points="637.23,-77.78 637.23,-96.78 653.23,-96.78 653.23,-77.78 637.23,-77.78"/>
<polyline fill="none" stroke="black" points="653.23,-77.78 653.23,-96.78 "/>
<text text-anchor="start" x="640.23" y="-84.18" font-family="sans-serif" font-size="12.00">D</text>
<polygon fill="white" stroke="transparent" points="653.23,-77.78 653.23,-96.78 683.23,-96.78 683.23,-77.78 653.23,-77.78"/>
<polygon fill="none" stroke="black" points="653.23,-77.78 653.23,-96.78 683.23,-96.78 683.23,-77.78 653.23,-77.78"/>
<text text-anchor="start" x="656.23" y="-84.18" font-family="sans-serif" font-size="12.00">ACL</text>
<polygon fill="white" stroke="transparent" points="522.11,-152.34 522.11,-169.34 536.11,-169.34 536.11,-152.34 522.11,-152.34"/>
<text text-anchor="start" x="524.11" y="-157.74" font-family="sans-serif" font-size="12.00">U</text>
</g>
<!-- GestionProductos -->
<g id="node6" class="node">
<title>GestionProductos</title>
<polygon fill="none" stroke="black" stroke-width="2" points="56.44,-475.05 57.6,-472.2 59.11,-469.38 60.97,-466.62 63.16,-463.91 65.7,-461.27 68.55,-458.71 71.73,-456.24 75.21,-453.87 78.99,-451.61 83.06,-449.47 87.41,-447.45 92.02,-445.56 96.88,-443.8 101.98,-442.19 107.31,-440.73 112.84,-439.41 118.57,-438.25 124.48,-437.24 130.55,-436.39 136.77,-435.69 143.12,-435.15 149.58,-434.77 156.14,-434.54 162.78,-434.45 169.47,-434.52 176.22,-434.73 182.98,-435.07 189.76,-435.55 196.52,-436.16 203.25,-436.89 209.94,-437.74 216.57,-438.7 223.11,-439.76 229.55,-440.92 235.88,-442.17 242.07,-443.5 248.12,-444.91 254,-446.4 259.69,-447.94 265.2,-449.55 270.49,-451.21 275.55,-452.91 280.37,-454.66 284.94,-456.44 289.25,-458.25 293.28,-460.09 297.02,-461.95 300.46,-463.83 303.6,-465.73 306.41,-467.63 308.9,-469.55 311.06,-471.47 312.88,-473.39 314.35,-475.32 315.48,-477.25 316.25,-479.17 316.67,-481.09 316.73,-483.01 316.43,-484.92 315.77,-486.83 314.76,-488.72 313.39,-490.61 311.68,-492.49 309.61,-494.35 307.2,-496.2 304.46,-498.04 301.39,-499.85 297.99,-501.65 294.29,-503.42 290.28,-505.17 285.98,-506.89 281.4,-508.58 276.55,-510.23 271.45,-511.84 266.11,-513.41 260.55,-514.93 254.77,-516.39 248.8,-517.79 242.65,-519.13 236.34,-520.4 229.89,-521.59 223.32,-522.7 216.64,-523.72 209.87,-524.65 203.03,-525.48 196.14,-526.2 189.23,-526.8 182.3,-527.29 175.39,-527.66 168.5,-527.9 161.67,-528.01 154.9,-527.98 148.22,-527.8 141.64,-527.49 135.19,-527.03 128.88,-526.42 122.74,-525.66 116.77,-524.75 111,-523.69 105.43,-522.48 100.1,-521.12 95,-519.62 90.16,-517.98 85.59,-516.19 81.3,-514.28 77.3,-512.24 73.61,-510.08 70.23,-507.8 67.17,-505.42 64.44,-502.94 62.05,-500.37 60.01,-497.73 58.31,-495.01 56.97,-492.24 55.98,-489.43 55.36,-486.57 55.09,-483.7 55.18,-480.81 55.63,-477.92 56.44,-475.05"/>
<text text-anchor="middle" x="185.99" y="-477.87" font-family="sans-serif" font-size="16.00">GestionProductos</text>
</g>
<!-- GestionProductos&#45;&gt;GestionInventario -->
<g id="edge4" class="edge">
<title>GestionProductos&#45;&gt;GestionInventario</title>
<path fill="none" stroke="black" stroke-width="2" d="M168.64,-434.26C162.36,-417.47 155.3,-398.59 149.13,-382.09"/>
<text text-anchor="middle" x="203.99" y="-406.96" font-family="sans-serif" font-size="12.00">Shared Kernel</text>
</g>
<!-- GestionPromociones -->
<g id="node7" class="node">
<title>GestionPromociones</title>
<polygon fill="none" stroke="black" stroke-width="2" points="341.47,-368.73 334.63,-366.71 328.12,-364.61 321.97,-362.44 316.21,-360.22 310.87,-357.96 305.95,-355.65 301.49,-353.31 297.51,-350.95 294.02,-348.57 291.04,-346.19 288.58,-343.81 286.64,-341.43 285.24,-339.07 284.39,-336.73 284.08,-334.42 284.31,-332.14 285.08,-329.91 286.39,-327.72 288.22,-325.57 290.58,-323.49 293.44,-321.46 296.79,-319.49 300.61,-317.59 304.89,-315.76 309.6,-314 314.72,-312.32 320.23,-310.71 326.11,-309.18 332.32,-307.73 338.84,-306.36 345.64,-305.08 352.69,-303.87 359.97,-302.76 367.44,-301.73 375.07,-300.78 382.84,-299.92 390.72,-299.15 398.68,-298.46 406.68,-297.87 414.71,-297.36 422.73,-296.93 430.73,-296.6 438.67,-296.36 446.54,-296.2 454.31,-296.14 461.96,-296.16 469.48,-296.28 476.84,-296.49 484.03,-296.79 491.04,-297.18 497.86,-297.66 504.46,-298.24 510.84,-298.91 517,-299.67 522.92,-300.53 528.6,-301.48 534.02,-302.53 539.2,-303.67 544.11,-304.9 548.76,-306.22 553.16,-307.63 557.28,-309.13 561.14,-310.73 564.73,-312.4 568.05,-314.16 571.1,-316 573.88,-317.92 576.39,-319.91 578.62,-321.97 580.59,-324.1 582.28,-326.29 583.69,-328.54 584.82,-330.83 585.68,-333.17 586.26,-335.55 586.55,-337.95 586.55,-340.39 586.26,-342.83 585.68,-345.29 584.8,-347.75 583.61,-350.19 582.13,-352.63 580.33,-355.04 578.23,-357.41 575.8,-359.74 573.07,-362.02 570.01,-364.25 566.62,-366.4 562.92,-368.48 558.89,-370.47 554.54,-372.37 549.87,-374.17 544.89,-375.86 539.59,-377.43 533.98,-378.88 528.07,-380.21 521.87,-381.4 515.39,-382.46 508.64,-383.37 501.63,-384.13 494.39,-384.75 486.91,-385.21 479.23,-385.52 471.36,-385.68 463.33,-385.68 455.16,-385.52 446.87,-385.21 438.48,-384.75 430.03,-384.13 421.55,-383.37 413.06,-382.47 404.59,-381.43 396.18,-380.25 387.86,-378.94 379.65,-377.51 371.59,-375.96 363.71,-374.3 356.04,-372.54 348.62,-370.68 341.47,-368.73"/>
<text text-anchor="middle" x="446.99" y="-334.15" font-family="sans-serif" font-size="16.00">GestionPromociones</text>
</g>
<!-- GestionProductos&#45;&gt;GestionPromociones -->
<g id="edge5" class="edge">
<title>GestionProductos&#45;&gt;GestionPromociones</title>
<path fill="none" stroke="black" stroke-width="2" d="M250.84,-445.45C289.04,-424.71 337.38,-398.46 376.52,-377.21"/>
<text text-anchor="middle" x="399.49" y="-406.96" font-family="sans-serif" font-size="12.00"> &#160;&#160;&#160;&#160;&#160;&#160;&#160;&#160;&#160;&#160;&#160;&#160;&#160;&#160;&#160;&#160;&#160;&#160;&#160;&#160;&#160;&#160;&#160;&#160;&#160;&#160;&#160;&#160;&#160;&#160;&#160;&#160;&#160;&#160;&#160;&#160;&#160;&#160;&#160;</text>
<polygon fill="white" stroke="transparent" points="369.52,-368.21 369.52,-385.21 383.52,-385.21 383.52,-368.21 369.52,-368.21"/>
<text text-anchor="start" x="371.52" y="-373.61" font-family="sans-serif" font-size="12.00">D</text>
<polygon fill="white" stroke="transparent" points="226.84,-435.45 226.84,-454.45 242.84,-454.45 242.84,-435.45 226.84,-435.45"/>
<polyline fill="none" stroke="black" points="242.84,-435.45 242.84,-454.45 "/>
<text text-anchor="start" x="229.84" y="-441.85" font-family="sans-serif" font-size="12.00">U</text>
<polygon fill="white" stroke="transparent" points="242.84,-435.45 242.84,-454.45 275.84,-454.45 275.84,-435.45 242.84,-435.45"/>
<polygon fill="none" stroke="black" points="242.84,-435.45 242.84,-454.45 275.84,-454.45 275.84,-435.45 242.84,-435.45"/>
<text text-anchor="start" x="245.84" y="-441.85" font-family="sans-serif" font-size="12.00">OHS</text>
</g>
<!-- GestionPromociones&#45;&gt;GestionPedidos -->
<g id="edge6" class="edge">
<title>GestionPromociones&#45;&gt;GestionPedidos</title>
<path fill="none" stroke="black" stroke-width="2" d="M446.99,-295.95C446.99,-278.86 446.99,-258.91 446.99,-241.21"/>
<text text-anchor="middle" x="522.49" y="-262.73" font-family="sans-serif" font-size="12.00"> &#160;&#160;&#160;&#160;&#160;&#160;&#160;&#160;&#160;&#160;&#160;&#160;&#160;&#160;&#160;&#160;&#160;&#160;&#160;&#160;&#160;&#160;&#160;&#160;&#160;&#160;&#160;&#160;&#160;&#160;&#160;&#160;&#160;&#160;&#160;&#160;&#160;&#160;&#160;</text>
<polygon fill="white" stroke="transparent" points="439.99,-232.21 439.99,-249.21 453.99,-249.21 453.99,-232.21 439.99,-232.21"/>
<text text-anchor="start" x="441.99" y="-237.61" font-family="sans-serif" font-size="12.00">D</text>
<polygon fill="white" stroke="transparent" points="439.99,-286.95 439.99,-303.95 453.99,-303.95 453.99,-286.95 439.99,-286.95"/>
<text text-anchor="start" x="441.99" y="-292.35" font-family="sans-serif" font-size="12.00">U</text>
</g>
</g>
</svg>
