<svg width="2000px" height="1258px"
 viewBox="0.00 0.00 854.05 536.58" xmlns="http://www.w3.org/2000/svg" xmlns:xlink="http://www.w3.org/1999/xlink">
<g id="graph0" class="graph" transform="scale(1.0 1.0) rotate(0) translate(4 532.58)">
<title>ContextMapGraph</title>
<polygon fill="white" stroke="transparent" points="-4,4 -4,-532.58 850.05,-532.58 850.05,4 -4,4"/>
<!-- GestionClientes -->
<g id="node1" class="node">
<title>GestionClientes</title>
<polygon fill="none" stroke="black" stroke-width="2" points="137.56,-87.22 130.61,-85.84 123.87,-84.35 117.37,-82.77 111.13,-81.11 105.18,-79.37 99.54,-77.55 94.24,-75.67 89.3,-73.72 84.74,-71.72 80.57,-69.67 76.82,-67.58 73.48,-65.46 70.59,-63.3 68.13,-61.12 66.13,-58.92 64.58,-56.71 63.5,-54.49 62.86,-52.27 62.69,-50.06 62.96,-47.85 63.68,-45.66 64.84,-43.49 66.41,-41.35 68.4,-39.23 70.79,-37.15 73.56,-35.11 76.7,-33.11 80.18,-31.15 83.99,-29.24 88.1,-27.39 92.5,-25.59 97.16,-23.85 102.07,-22.18 107.19,-20.57 112.51,-19.03 117.99,-17.56 123.63,-16.17 129.4,-14.86 135.27,-13.62 141.23,-12.47 147.25,-11.4 153.32,-10.42 159.41,-9.53 165.51,-8.74 171.6,-8.03 177.67,-7.43 183.7,-6.92 189.68,-6.51 195.59,-6.21 201.43,-6.01 207.18,-5.91 212.84,-5.93 218.4,-6.04 223.84,-6.27 229.17,-6.61 234.38,-7.06 239.46,-7.62 244.42,-8.29 249.23,-9.07 253.92,-9.96 258.46,-10.96 262.86,-12.06 267.12,-13.28 271.23,-14.6 275.19,-16.02 279,-17.54 282.65,-19.15 286.15,-20.87 289.48,-22.67 292.65,-24.55 295.65,-26.52 298.47,-28.57 301.11,-30.68 303.57,-32.86 305.82,-35.11 307.88,-37.4 309.73,-39.74 311.36,-42.12 312.77,-44.53 313.94,-46.97 314.86,-49.43 315.53,-51.89 315.94,-54.36 316.08,-56.82 315.94,-59.26 315.51,-61.68 314.78,-64.08 313.74,-66.43 312.39,-68.73 310.72,-70.98 308.72,-73.17 306.4,-75.28 303.74,-77.32 300.75,-79.28 297.42,-81.14 293.76,-82.9 289.76,-84.56 285.44,-86.11 280.8,-87.54 275.84,-88.86 270.58,-90.05 265.02,-91.11 259.19,-92.04 253.09,-92.83 246.74,-93.5 240.16,-94.02 233.37,-94.4 226.39,-94.65 219.25,-94.75 211.97,-94.72 204.57,-94.55 197.09,-94.24 189.54,-93.8 181.97,-93.23 174.39,-92.53 166.85,-91.7 159.36,-90.75 151.96,-89.69 144.68,-88.51 137.56,-87.22"/>
<text text-anchor="middle" x="197.57" y="-45.09" font-family="sans-serif" font-size="16.00">GestionClientes</text>
</g>
<!-- GestionEnvios -->
<g id="node2" class="node">
<title>GestionEnvios</title>
<polygon fill="none" stroke="black" stroke-width="2" points="364.41,-65.56 361.51,-62.93 358.91,-60.27 356.63,-57.59 354.69,-54.9 353.07,-52.21 351.81,-49.53 350.89,-46.88 350.34,-44.26 350.14,-41.68 350.32,-39.14 350.86,-36.67 351.76,-34.26 353.04,-31.93 354.67,-29.68 356.66,-27.51 359.01,-25.43 361.7,-23.46 364.72,-21.58 368.08,-19.81 371.74,-18.14 375.71,-16.59 379.96,-15.14 384.49,-13.82 389.27,-12.6 394.29,-11.5 399.53,-10.52 404.97,-9.65 410.59,-8.89 416.38,-8.24 422.3,-7.71 428.34,-7.28 434.49,-6.95 440.71,-6.73 446.98,-6.61 453.29,-6.59 459.61,-6.66 465.92,-6.82 472.21,-7.08 478.45,-7.42 484.62,-7.84 490.7,-8.34 496.67,-8.92 502.53,-9.58 508.24,-10.32 513.8,-11.12 519.2,-12 524.4,-12.94 529.42,-13.95 534.22,-15.03 538.81,-16.17 543.16,-17.37 547.28,-18.64 551.16,-19.97 554.78,-21.36 558.15,-22.81 561.26,-24.32 564.09,-25.89 566.67,-27.51 568.96,-29.19 570.99,-30.93 572.74,-32.73 574.22,-34.57 575.43,-36.47 576.36,-38.42 577.03,-40.41 577.42,-42.45 577.55,-44.53 577.42,-46.64 577.02,-48.8 576.37,-50.98 575.47,-53.19 574.32,-55.41 572.93,-57.66 571.29,-59.91 569.42,-62.17 567.32,-64.42 564.99,-66.67 562.44,-68.89 559.68,-71.1 556.7,-73.26 553.52,-75.39 550.14,-77.47 546.56,-79.5 542.79,-81.45 538.84,-83.34 534.72,-85.14 530.43,-86.85 525.97,-88.46 521.36,-89.96 516.6,-91.35 511.7,-92.62 506.68,-93.76 501.53,-94.77 496.27,-95.63 490.91,-96.35 485.46,-96.91 479.93,-97.32 474.33,-97.58 468.68,-97.67 462.99,-97.59 457.27,-97.35 451.54,-96.95 445.81,-96.38 440.09,-95.65 434.41,-94.75 428.77,-93.7 423.2,-92.49 417.71,-91.13 412.32,-89.63 407.05,-87.98 401.91,-86.2 396.91,-84.3 392.09,-82.27 387.45,-80.14 383.01,-77.91 378.79,-75.58 374.81,-73.17 371.07,-70.69 367.6,-68.15 364.41,-65.56"/>
<text text-anchor="middle" x="468.57" y="-45.09" font-family="sans-serif" font-size="16.00">GestionEnvios</text>
</g>
<!-- GestionInventario -->
<g id="node3" class="node">
<title>GestionInventario</title>
<polygon fill="none" stroke="black" stroke-width="2" points="168.19,-292.49 176.77,-292.98 185.23,-293.58 193.54,-294.3 201.65,-295.13 209.55,-296.06 217.19,-297.11 224.54,-298.26 231.59,-299.51 238.3,-300.85 244.64,-302.29 250.6,-303.81 256.15,-305.42 261.28,-307.11 265.98,-308.87 270.22,-310.7 274,-312.6 277.31,-314.56 280.15,-316.57 282.51,-318.63 284.4,-320.74 285.8,-322.88 286.74,-325.05 287.21,-327.26 287.22,-329.48 286.79,-331.72 285.92,-333.97 284.64,-336.22 282.95,-338.47 280.87,-340.71 278.42,-342.94 275.62,-345.15 272.48,-347.33 269.04,-349.48 265.3,-351.6 261.3,-353.67 257.04,-355.7 252.55,-357.67 247.86,-359.59 242.97,-361.44 237.92,-363.23 232.71,-364.94 227.38,-366.57 221.93,-368.13 216.37,-369.59 210.74,-370.97 205.03,-372.26 199.27,-373.44 193.46,-374.53 187.62,-375.51 181.75,-376.39 175.87,-377.15 169.99,-377.81 164.1,-378.35 158.22,-378.78 152.35,-379.09 146.5,-379.28 140.67,-379.35 134.87,-379.31 129.1,-379.14 123.36,-378.85 117.65,-378.45 111.99,-377.93 106.38,-377.29 100.81,-376.53 95.3,-375.66 89.85,-374.68 84.46,-373.59 79.15,-372.39 73.91,-371.09 68.77,-369.68 63.72,-368.19 58.78,-366.6 53.95,-364.92 49.26,-363.15 44.71,-361.31 40.31,-359.4 36.09,-357.41 32.06,-355.37 28.22,-353.26 24.61,-351.11 21.23,-348.91 18.11,-346.67 15.26,-344.4 12.7,-342.1 10.44,-339.78 8.5,-337.46 6.91,-335.12 5.67,-332.79 4.81,-330.46 4.33,-328.15 4.25,-325.86 4.58,-323.59 5.34,-321.36 6.53,-319.17 8.15,-317.03 10.22,-314.94 12.74,-312.91 15.7,-310.95 19.11,-309.05 22.97,-307.23 27.27,-305.49 31.99,-303.84 37.14,-302.28 42.69,-300.81 48.63,-299.44 54.95,-298.18 61.62,-297.02 68.63,-295.96 75.94,-295.02 83.54,-294.2 91.39,-293.49 99.46,-292.89 107.73,-292.42 116.16,-292.07 124.72,-291.84 133.37,-291.73 142.08,-291.74 150.81,-291.87 159.52,-292.12 168.19,-292.49"/>
<text text-anchor="middle" x="143.57" y="-331.81" font-family="sans-serif" font-size="16.00">GestionInventario</text>
</g>
<!-- GestionPagos -->
<g id="node4" class="node">
<title>GestionPagos</title>
<polygon fill="none" stroke="black" stroke-width="2" points="657.89,-83.06 652.29,-81.31 646.92,-79.48 641.79,-77.56 636.92,-75.58 632.34,-73.54 628.07,-71.44 624.12,-69.3 620.51,-67.11 617.25,-64.9 614.36,-62.65 611.85,-60.39 609.73,-58.12 608,-55.84 606.67,-53.57 605.75,-51.3 605.24,-49.05 605.13,-46.81 605.43,-44.6 606.12,-42.42 607.21,-40.28 608.69,-38.18 610.54,-36.12 612.76,-34.1 615.33,-32.14 618.23,-30.24 621.46,-28.39 625,-26.61 628.82,-24.89 632.91,-23.23 637.26,-21.65 641.83,-20.14 646.61,-18.7 651.58,-17.33 656.72,-16.05 662,-14.84 667.41,-13.71 672.92,-12.66 678.51,-11.7 684.17,-10.82 689.86,-10.03 695.59,-9.32 701.32,-8.71 707.03,-8.18 712.72,-7.74 718.37,-7.4 723.95,-7.15 729.47,-6.99 734.9,-6.93 740.23,-6.96 745.46,-7.1 750.57,-7.33 755.56,-7.66 760.41,-8.09 765.13,-8.62 769.7,-9.25 774.13,-9.98 778.39,-10.82 782.51,-11.75 786.46,-12.79 790.25,-13.92 793.87,-15.16 797.33,-16.49 800.62,-17.92 803.74,-19.45 806.69,-21.06 809.46,-22.77 812.07,-24.56 814.49,-26.43 816.74,-28.38 818.81,-30.41 820.7,-32.51 822.4,-34.67 823.92,-36.89 825.24,-39.17 826.38,-41.49 827.31,-43.85 828.04,-46.25 828.56,-48.68 828.88,-51.12 828.97,-53.57 828.84,-56.03 828.49,-58.48 827.9,-60.92 827.08,-63.34 826.02,-65.73 824.7,-68.08 823.14,-70.38 821.32,-72.62 819.24,-74.81 816.9,-76.92 814.3,-78.95 811.44,-80.89 808.31,-82.73 804.92,-84.48 801.27,-86.12 797.36,-87.64 793.2,-89.04 788.79,-90.31 784.14,-91.45 779.26,-92.46 774.16,-93.33 768.85,-94.06 763.35,-94.64 757.66,-95.08 751.8,-95.36 745.8,-95.51 739.66,-95.5 733.41,-95.35 727.07,-95.05 720.65,-94.6 714.19,-94.02 707.71,-93.3 701.22,-92.44 694.76,-91.45 688.35,-90.34 682.01,-89.1 675.77,-87.75 669.65,-86.29 663.68,-84.72 657.89,-83.06"/>
<text text-anchor="middle" x="725.57" y="-45.09" font-family="sans-serif" font-size="16.00">GestionPagos</text>
</g>
<!-- GestionPedidos -->
<g id="node5" class="node">
<title>GestionPedidos</title>
<polygon fill="none" stroke="black" stroke-width="2" points="395.94,-228.41 389.72,-226.68 383.74,-224.87 378.02,-222.98 372.59,-221.01 367.47,-218.99 362.68,-216.9 358.25,-214.77 354.18,-212.59 350.5,-210.38 347.23,-208.14 344.37,-205.88 341.93,-203.6 339.93,-201.32 338.37,-199.03 337.25,-196.75 336.58,-194.49 336.35,-192.23 336.57,-190.01 337.23,-187.8 338.33,-185.63 339.84,-183.5 341.78,-181.41 344.11,-179.37 346.84,-177.37 349.94,-175.43 353.39,-173.55 357.19,-171.72 361.3,-169.96 365.71,-168.27 370.4,-166.64 375.34,-165.08 380.52,-163.6 385.91,-162.19 391.48,-160.85 397.22,-159.6 403.1,-158.42 409.09,-157.33 415.18,-156.32 421.34,-155.39 427.56,-154.55 433.8,-153.8 440.06,-153.13 446.3,-152.56 452.52,-152.08 458.7,-151.69 464.82,-151.4 470.86,-151.2 476.81,-151.1 482.66,-151.1 488.41,-151.2 494.02,-151.39 499.51,-151.69 504.86,-152.09 510.06,-152.59 515.1,-153.2 519.99,-153.9 524.71,-154.71 529.27,-155.63 533.65,-156.65 537.86,-157.76 541.9,-158.98 545.75,-160.3 549.43,-161.72 552.92,-163.23 556.24,-164.84 559.36,-166.54 562.3,-168.33 565.05,-170.2 567.61,-172.15 569.98,-174.18 572.15,-176.28 574.12,-178.45 575.89,-180.68 577.45,-182.96 578.8,-185.3 579.94,-187.67 580.85,-190.09 581.54,-192.53 582,-194.99 582.22,-197.46 582.2,-199.94 581.93,-202.41 581.4,-204.88 580.61,-207.32 579.55,-209.74 578.23,-212.11 576.62,-214.44 574.73,-216.72 572.55,-218.94 570.09,-221.08 567.33,-223.14 564.28,-225.12 560.94,-227.01 557.3,-228.79 553.37,-230.47 549.16,-232.03 544.66,-233.47 539.88,-234.78 534.84,-235.97 529.53,-237.02 523.98,-237.93 518.19,-238.7 512.18,-239.33 505.96,-239.81 499.55,-240.14 492.97,-240.33 486.23,-240.36 479.37,-240.25 472.4,-240 465.35,-239.6 458.23,-239.05 451.08,-238.37 443.93,-237.55 436.79,-236.6 429.7,-235.52 422.69,-234.32 415.78,-233 409,-231.57 402.38,-230.04 395.94,-228.41"/>
<text text-anchor="middle" x="468.57" y="-189.67" font-family="sans-serif" font-size="16.00">GestionPedidos</text>
</g>
<!-- GestionPedidos&#45;&gt;GestionClientes -->
<g id="edge3" class="edge">
<title>GestionPedidos&#45;&gt;GestionClientes</title>
<path fill="none" stroke="black" stroke-width="2" d="M385.86,-162.18C362.06,-152.48 336.38,-141.04 313.57,-128.78 293.95,-118.22 273.53,-105.13 255.4,-92.67"/>
<text text-anchor="middle" x="389.07" y="-119.18" font-family="sans-serif" font-size="12.00"> &#160;&#160;&#160;&#160;&#160;&#160;&#160;&#160;&#160;&#160;&#160;&#160;&#160;&#160;&#160;&#160;&#160;&#160;&#160;&#160;&#160;&#160;&#160;&#160;&#160;&#160;&#160;&#160;&#160;&#160;&#160;&#160;&#160;&#160;&#160;&#160;&#160;&#160;&#160;</text>
<polygon fill="white" stroke="transparent" points="248.4,-83.67 248.4,-100.67 262.4,-100.67 262.4,-83.67 248.4,-83.67"/>
<text text-anchor="start" x="250.4" y="-89.07" font-family="sans-serif" font-size="12.00">D</text>
<polygon fill="white" stroke="transparent" points="378.86,-153.18 378.86,-170.18 392.86,-170.18 392.86,-153.18 378.86,-153.18"/>
<text text-anchor="start" x="380.86" y="-158.58" font-family="sans-serif" font-size="12.00">U</text>
</g>
<!-- GestionPedidos&#45;&gt;GestionEnvios -->
<g id="edge1" class="edge">
<title>GestionPedidos&#45;&gt;GestionEnvios</title>
<path fill="none" stroke="black" stroke-width="2" d="M468.57,-151.23C468.57,-134.53 468.57,-115.15 468.57,-97.83"/>
<text text-anchor="middle" x="544.07" y="-119.18" font-family="sans-serif" font-size="12.00"> &#160;&#160;&#160;&#160;&#160;&#160;&#160;&#160;&#160;&#160;&#160;&#160;&#160;&#160;&#160;&#160;&#160;&#160;&#160;&#160;&#160;&#160;&#160;&#160;&#160;&#160;&#160;&#160;&#160;&#160;&#160;&#160;&#160;&#160;&#160;&#160;&#160;&#160;&#160;</text>
<polygon fill="white" stroke="transparent" points="445.57,-87.83 445.57,-106.83 461.57,-106.83 461.57,-87.83 445.57,-87.83"/>
<polyline fill="none" stroke="black" points="461.57,-87.83 461.57,-106.83 "/>
<text text-anchor="start" x="448.57" y="-94.23" font-family="sans-serif" font-size="12.00">D</text>
<polygon fill="white" stroke="transparent" points="461.57,-87.83 461.57,-106.83 491.57,-106.83 491.57,-87.83 461.57,-87.83"/>
<polygon fill="none" stroke="black" points="461.57,-87.83 461.57,-106.83 491.57,-106.83 491.57,-87.83 461.57,-87.83"/>
<text text-anchor="start" x="464.57" y="-94.23" font-family="sans-serif" font-size="12.00">ACL</text>
<polygon fill="white" stroke="transparent" points="461.57,-142.23 461.57,-159.23 475.57,-159.23 475.57,-142.23 461.57,-142.23"/>
<text text-anchor="start" x="463.57" y="-147.63" font-family="sans-serif" font-size="12.00">U</text>
</g>
<!-- GestionPedidos&#45;&gt;GestionPagos -->
<g id="edge2" class="edge">
<title>GestionPedidos&#45;&gt;GestionPagos</title>
<path fill="none" stroke="black" stroke-width="2" d="M552.18,-162.9C575.88,-153.25 601.28,-141.66 623.57,-128.78 643.25,-117.41 663.35,-102.65 680.46,-88.98"/>
<text text-anchor="middle" x="716.07" y="-119.18" font-family="sans-serif" font-size="12.00"> &#160;&#160;&#160;&#160;&#160;&#160;&#160;&#160;&#160;&#160;&#160;&#160;&#160;&#160;&#160;&#160;&#160;&#160;&#160;&#160;&#160;&#160;&#160;&#160;&#160;&#160;&#160;&#160;&#160;&#160;&#160;&#160;&#160;&#160;&#160;&#160;&#160;&#160;&#160;</text>
<polygon fill="white" stroke="transparent" points="657.46,-78.98 657.46,-97.98 673.46,-97.98 673.46,-78.98 657.46,-78.98"/>
<polyline fill="none" stroke="black" points="673.46,-78.98 673.46,-97.98 "/>
<text text-anchor="start" x="660.46" y="-85.38" font-family="sans-serif" font-size="12.00">D</text>
<polygon fill="white" stroke="transparent" points="673.46,-78.98 673.46,-97.98 703.46,-97.98 703.46,-78.98 673.46,-78.98"/>
<polygon fill="none" stroke="black" points="673.46,-78.98 673.46,-97.98 703.46,-97.98 703.46,-78.98 673.46,-78.98"/>
<text text-anchor="start" x="676.46" y="-85.38" font-family="sans-serif" font-size="12.00">ACL</text>
<polygon fill="white" stroke="transparent" points="545.18,-153.9 545.18,-170.9 559.18,-170.9 559.18,-153.9 545.18,-153.9"/>
<text text-anchor="start" x="547.18" y="-159.3" font-family="sans-serif" font-size="12.00">U</text>
</g>
<!-- GestionProductos -->
<g id="node6" class="node">
<title>GestionProductos</title>
<polygon fill="none" stroke="black" stroke-width="2" points="80.37,-459.53 84.24,-456.98 88.4,-454.5 92.84,-452.1 97.54,-449.8 102.5,-447.59 107.69,-445.5 113.08,-443.53 118.68,-441.68 124.45,-439.97 130.38,-438.4 136.46,-436.97 142.65,-435.7 148.96,-434.58 155.35,-433.62 161.81,-432.83 168.32,-432.19 174.87,-431.72 181.44,-431.42 188.01,-431.28 194.57,-431.3 201.11,-431.49 207.6,-431.83 214.03,-432.32 220.39,-432.96 226.67,-433.75 232.85,-434.68 238.92,-435.74 244.86,-436.92 250.67,-438.23 256.34,-439.65 261.85,-441.17 267.19,-442.79 272.35,-444.5 277.32,-446.28 282.1,-448.15 286.67,-450.07 291.02,-452.05 295.15,-454.08 299.04,-456.16 302.69,-458.26 306.09,-460.39 309.22,-462.54 312.1,-464.71 314.7,-466.88 317.01,-469.05 319.04,-471.21 320.78,-473.36 322.21,-475.5 323.34,-477.62 324.16,-479.72 324.66,-481.79 324.84,-483.82 324.69,-485.83 324.22,-487.8 323.42,-489.73 322.28,-491.62 320.81,-493.47 319.01,-495.28 316.87,-497.04 314.4,-498.75 311.61,-500.43 308.48,-502.05 305.04,-503.62 301.27,-505.15 297.2,-506.63 292.82,-508.05 288.15,-509.42 283.2,-510.74 277.97,-512 272.48,-513.21 266.75,-514.36 260.77,-515.44 254.59,-516.47 248.2,-517.43 241.62,-518.32 234.88,-519.14 227.99,-519.88 220.98,-520.55 213.86,-521.14 206.66,-521.65 199.4,-522.07 192.1,-522.39 184.79,-522.63 177.48,-522.76 170.21,-522.79 162.99,-522.72 155.86,-522.54 148.83,-522.25 141.93,-521.84 135.18,-521.32 128.61,-520.68 122.23,-519.91 116.07,-519.03 110.15,-518.02 104.5,-516.88 99.12,-515.62 94.04,-514.24 89.27,-512.74 84.84,-511.12 80.74,-509.38 77.01,-507.52 73.64,-505.56 70.66,-503.49 68.06,-501.32 65.85,-499.06 64.05,-496.71 62.65,-494.28 61.66,-491.77 61.08,-489.2 60.9,-486.58 61.13,-483.91 61.76,-481.2 62.79,-478.47 64.2,-475.73 66,-472.97 68.17,-470.23 70.71,-467.5 73.59,-464.8 76.82,-462.14 80.37,-459.53"/>
<text text-anchor="middle" x="196.57" y="-476.01" font-family="sans-serif" font-size="16.00">GestionProductos</text>
</g>
<!-- GestionProductos&#45;&gt;GestionInventario -->
<g id="edge4" class="edge">
<title>GestionProductos&#45;&gt;GestionInventario</title>
<path fill="none" stroke="black" stroke-width="2" d="M178.93,-431.46C172.6,-414.49 165.52,-395.49 159.36,-378.97"/>
<text text-anchor="middle" x="214.57" y="-403.45" font-family="sans-serif" font-size="12.00">Shared Kernel</text>
</g>
<!-- GestionPromociones -->
<g id="node7" class="node">
<title>GestionPromociones</title>
<polygon fill="none" stroke="black" stroke-width="2" points="529.33,-375.58 520.62,-376.8 511.8,-377.9 502.9,-378.88 493.95,-379.73 485,-380.46 476.07,-381.04 467.2,-381.49 458.42,-381.8 449.75,-381.96 441.24,-381.99 432.91,-381.86 424.79,-381.59 416.89,-381.18 409.25,-380.62 401.88,-379.92 394.8,-379.08 388.03,-378.1 381.58,-376.99 375.48,-375.75 369.72,-374.38 364.32,-372.89 359.28,-371.28 354.61,-369.57 350.32,-367.75 346.4,-365.83 342.85,-363.83 339.68,-361.74 336.87,-359.58 334.44,-357.35 332.37,-355.06 330.65,-352.72 329.28,-350.34 328.26,-347.93 327.56,-345.49 327.2,-343.04 327.15,-340.57 327.41,-338.11 327.97,-335.65 328.83,-333.21 329.96,-330.8 331.38,-328.41 333.06,-326.06 335.01,-323.76 337.21,-321.51 339.66,-319.32 342.35,-317.19 345.28,-315.13 348.45,-313.14 351.84,-311.23 355.47,-309.41 359.32,-307.67 363.38,-306.02 367.67,-304.47 372.17,-303.01 376.89,-301.65 381.82,-300.38 386.95,-299.22 392.3,-298.17 397.84,-297.21 403.59,-296.36 409.53,-295.62 415.66,-294.98 421.98,-294.44 428.48,-294.01 435.14,-293.68 441.97,-293.46 448.95,-293.33 456.07,-293.31 463.31,-293.39 470.67,-293.57 478.13,-293.84 485.67,-294.21 493.27,-294.68 500.91,-295.23 508.58,-295.88 516.25,-296.62 523.89,-297.45 531.48,-298.36 539.01,-299.36 546.43,-300.45 553.72,-301.61 560.86,-302.86 567.82,-304.18 574.56,-305.58 581.07,-307.05 587.3,-308.59 593.24,-310.2 598.86,-311.88 604.12,-313.62 609.01,-315.43 613.49,-317.29 617.55,-319.21 621.16,-321.18 624.3,-323.19 626.96,-325.25 629.11,-327.36 630.74,-329.49 631.84,-331.66 632.4,-333.86 632.41,-336.08 631.87,-338.31 630.78,-340.56 629.13,-342.81 626.93,-345.06 624.18,-347.31 620.9,-349.54 617.1,-351.75 612.78,-353.93 607.97,-356.08 602.68,-358.19 596.94,-360.26 590.77,-362.27 584.2,-364.22 577.24,-366.1 569.94,-367.9 562.33,-369.63 554.42,-371.26 546.27,-372.8 537.89,-374.24 529.33,-375.58"/>
<text text-anchor="middle" x="468.57" y="-331.81" font-family="sans-serif" font-size="16.00">GestionPromociones</text>
</g>
<!-- GestionProductos&#45;&gt;GestionPromociones -->
<g id="edge5" class="edge">
<title>GestionProductos&#45;&gt;GestionPromociones</title>
<path fill="none" stroke="black" stroke-width="2" d="M266.27,-442.38C303.57,-422.87 349.69,-398.76 388.47,-378.49"/>
<text text-anchor="middle" x="416.07" y="-403.45" font-family="sans-serif" font-size="12.00"> &#160;&#160;&#160;&#160;&#160;&#160;&#160;&#160;&#160;&#160;&#160;&#160;&#160;&#160;&#160;&#160;&#160;&#160;&#160;&#160;&#160;&#160;&#160;&#160;&#160;&#160;&#160;&#160;&#160;&#160;&#160;&#160;&#160;&#160;&#160;&#160;&#160;&#160;&#160;</text>
<polygon fill="white" stroke="transparent" points="381.47,-369.49 381.47,-386.49 395.47,-386.49 395.47,-369.49 381.47,-369.49"/>
<text text-anchor="start" x="383.47" y="-374.89" font-family="sans-serif" font-size="12.00">D</text>
<polygon fill="white" stroke="transparent" points="242.27,-432.38 242.27,-451.38 258.27,-451.38 258.27,-432.38 242.27,-432.38"/>
<polyline fill="none" stroke="black" points="258.27,-432.38 258.27,-451.38 "/>
<text text-anchor="start" x="245.27" y="-438.78" font-family="sans-serif" font-size="12.00">U</text>
<polygon fill="white" stroke="transparent" points="258.27,-432.38 258.27,-451.38 291.27,-451.38 291.27,-432.38 258.27,-432.38"/>
<polygon fill="none" stroke="black" points="258.27,-432.38 258.27,-451.38 291.27,-451.38 291.27,-432.38 258.27,-432.38"/>
<text text-anchor="start" x="261.27" y="-438.78" font-family="sans-serif" font-size="12.00">OHS</text>
</g>
<!-- GestionPromociones&#45;&gt;GestionPedidos -->
<g id="edge6" class="edge">
<title>GestionPromociones&#45;&gt;GestionPedidos</title>
<path fill="none" stroke="black" stroke-width="2" d="M468.57,-293.32C468.57,-276.53 468.57,-257.06 468.57,-239.87"/>
<text text-anchor="middle" x="544.07" y="-261.57" font-family="sans-serif" font-size="12.00"> &#160;&#160;&#160;&#160;&#160;&#160;&#160;&#160;&#160;&#160;&#160;&#160;&#160;&#160;&#160;&#160;&#160;&#160;&#160;&#160;&#160;&#160;&#160;&#160;&#160;&#160;&#160;&#160;&#160;&#160;&#160;&#160;&#160;&#160;&#160;&#160;&#160;&#160;&#160;</text>
<polygon fill="white" stroke="transparent" points="461.57,-230.87 461.57,-247.87 475.57,-247.87 475.57,-230.87 461.57,-230.87"/>
<text text-anchor="start" x="463.57" y="-236.27" font-family="sans-serif" font-size="12.00">D</text>
<polygon fill="white" stroke="transparent" points="461.57,-284.32 461.57,-301.32 475.57,-301.32 475.57,-284.32 461.57,-284.32"/>
<text text-anchor="start" x="463.57" y="-289.72" font-family="sans-serif" font-size="12.00">U</text>
</g>
</g>
</svg>
