<svg width="2000px" height="260px"
 viewBox="0.00 0.00 816.39 105.76" xmlns="http://www.w3.org/2000/svg" xmlns:xlink="http://www.w3.org/1999/xlink">
<g id="graph0" class="graph" transform="scale(1.0 1.0) rotate(0) translate(4 101.76)">
<title>ContextMapGraph</title>
<polygon fill="white" stroke="transparent" points="-4,4 -4,-101.76 812.39,-101.76 812.39,4 -4,4"/>
<!-- GestionEnvios -->
<g id="node1" class="node">
<title>GestionEnvios</title>
<polygon fill="none" stroke="black" stroke-width="2" points="21.33,-69.65 17.74,-67.16 14.45,-64.62 11.47,-62.05 8.81,-59.46 6.48,-56.86 4.51,-54.26 2.89,-51.66 1.63,-49.08 0.75,-46.53 0.24,-44.01 0.11,-41.54 0.36,-39.11 1,-36.74 2.02,-34.44 3.42,-32.21 5.2,-30.06 7.34,-27.98 9.84,-26 12.7,-24.1 15.89,-22.3 19.42,-20.6 23.26,-19 27.4,-17.49 31.83,-16.1 36.52,-14.8 41.47,-13.61 46.64,-12.53 52.02,-11.55 57.6,-10.67 63.34,-9.9 69.24,-9.23 75.25,-8.66 81.38,-8.18 87.58,-7.81 93.84,-7.53 100.15,-7.35 106.47,-7.25 112.78,-7.25 119.07,-7.33 125.31,-7.5 131.49,-7.75 137.59,-8.09 143.59,-8.5 149.46,-9 155.21,-9.57 160.8,-10.22 166.23,-10.95 171.48,-11.75 176.55,-12.62 181.41,-13.56 186.06,-14.58 190.5,-15.67 194.71,-16.83 198.68,-18.07 202.42,-19.37 205.91,-20.74 209.15,-22.18 212.15,-23.69 214.88,-25.27 217.36,-26.91 219.59,-28.62 221.55,-30.39 223.26,-32.22 224.71,-34.11 225.9,-36.07 226.84,-38.07 227.53,-40.13 227.97,-42.24 228.15,-44.39 228.09,-46.58 227.79,-48.81 227.25,-51.06 226.46,-53.35 225.44,-55.65 224.19,-57.97 222.7,-60.29 220.99,-62.61 219.06,-64.92 216.9,-67.22 214.52,-69.49 211.93,-71.73 209.13,-73.93 206.12,-76.08 202.9,-78.18 199.48,-80.21 195.86,-82.16 192.05,-84.03 188.06,-85.81 183.88,-87.49 179.52,-89.06 175,-90.52 170.31,-91.86 165.46,-93.06 160.46,-94.13 155.33,-95.06 150.06,-95.85 144.68,-96.48 139.18,-96.95 133.59,-97.27 127.91,-97.43 122.16,-97.43 116.36,-97.26 110.51,-96.93 104.63,-96.43 98.74,-95.77 92.86,-94.96 87,-93.98 81.18,-92.86 75.42,-91.58 69.73,-90.16 64.14,-88.61 58.67,-86.92 53.33,-85.11 48.15,-83.18 43.14,-81.14 38.32,-79.01 33.71,-76.78 29.33,-74.47 25.2,-72.09 21.33,-69.65"/>
<text text-anchor="middle" x="120.39" y="-45.08" font-family="sans-serif" font-size="16.00">GestionEnvios</text>
</g>
<!-- GestionProductos -->
<g id="node2" class="node">
<title>GestionProductos</title>
<polygon fill="none" stroke="black" stroke-width="2" points="371.69,-91.78 363.3,-91.19 355.04,-90.49 346.95,-89.68 339.06,-88.75 331.39,-87.72 323.99,-86.59 316.88,-85.35 310.08,-84.02 303.62,-82.6 297.54,-81.09 291.84,-79.49 286.54,-77.82 281.67,-76.07 277.24,-74.25 273.26,-72.36 269.74,-70.42 266.69,-68.42 264.11,-66.37 262,-64.28 260.37,-62.15 259.21,-59.99 258.51,-57.8 258.28,-55.59 258.5,-53.36 259.16,-51.12 260.25,-48.88 261.75,-46.64 263.64,-44.41 265.92,-42.19 268.56,-39.98 271.55,-37.81 274.85,-35.65 278.47,-33.54 282.36,-31.46 286.52,-29.43 290.92,-27.45 295.53,-25.53 300.35,-23.66 305.34,-21.86 310.5,-20.14 315.8,-18.48 321.22,-16.9 326.74,-15.41 332.35,-14.01 338.04,-12.69 343.78,-11.47 349.57,-10.35 355.4,-9.33 361.24,-8.41 367.1,-7.6 372.97,-6.9 378.82,-6.31 384.67,-5.84 390.49,-5.48 396.3,-5.24 402.07,-5.11 407.81,-5.11 413.51,-5.22 419.17,-5.45 424.78,-5.8 430.35,-6.27 435.86,-6.86 441.31,-7.57 446.71,-8.39 452.04,-9.33 457.29,-10.37 462.48,-11.53 467.58,-12.79 472.59,-14.15 477.5,-15.61 482.31,-17.17 487.01,-18.82 491.57,-20.56 496,-22.38 500.29,-24.28 504.41,-26.24 508.35,-28.28 512.11,-30.38 515.66,-32.53 518.98,-34.73 522.08,-36.97 524.91,-39.25 527.48,-41.55 529.76,-43.88 531.74,-46.23 533.4,-48.58 534.72,-50.94 535.69,-53.29 536.3,-55.63 536.53,-57.95 536.37,-60.25 535.81,-62.51 534.83,-64.74 533.44,-66.91 531.61,-69.04 529.36,-71.11 526.68,-73.11 523.56,-75.05 520,-76.91 516.02,-78.68 511.62,-80.38 506.8,-81.98 501.58,-83.48 495.96,-84.89 489.98,-86.19 483.63,-87.39 476.95,-88.47 469.95,-89.44 462.66,-90.3 455.11,-91.04 447.31,-91.66 439.31,-92.16 431.13,-92.54 422.8,-92.8 414.37,-92.93 405.85,-92.94 397.29,-92.83 388.71,-92.6 380.17,-92.25 371.69,-91.78"/>
<text text-anchor="middle" x="400.39" y="-45.08" font-family="sans-serif" font-size="16.00">GestionProductos</text>
</g>
<!-- gestionPedidos -->
<g id="node3" class="node">
<title>gestionPedidos</title>
<polygon fill="none" stroke="black" stroke-width="2" points="576.4,-66.25 573.25,-63.64 570.42,-61 567.91,-58.33 565.75,-55.66 563.94,-52.98 562.5,-50.32 561.42,-47.67 560.71,-45.05 560.39,-42.47 560.45,-39.94 560.9,-37.47 561.73,-35.05 562.95,-32.71 564.56,-30.45 566.53,-28.27 568.89,-26.18 571.6,-24.18 574.67,-22.28 578.09,-20.49 581.84,-18.8 585.91,-17.22 590.28,-15.75 594.95,-14.39 599.88,-13.14 605.07,-12.01 610.5,-10.99 616.14,-10.08 621.97,-9.29 627.98,-8.6 634.14,-8.03 640.43,-7.56 646.83,-7.19 653.32,-6.93 659.86,-6.76 666.45,-6.7 673.05,-6.73 679.65,-6.85 686.23,-7.06 692.76,-7.35 699.22,-7.73 705.59,-8.2 711.86,-8.74 718,-9.36 724.01,-10.05 729.85,-10.82 735.52,-11.66 741,-12.56 746.28,-13.54 751.35,-14.58 756.19,-15.69 760.8,-16.87 765.16,-18.11 769.27,-19.41 773.12,-20.77 776.7,-22.2 780.01,-23.69 783.05,-25.24 785.81,-26.84 788.29,-28.51 790.49,-30.24 792.4,-32.02 794.03,-33.85 795.38,-35.74 796.45,-37.68 797.23,-39.67 797.74,-41.7 797.98,-43.78 797.94,-45.9 797.63,-48.05 797.05,-50.24 796.21,-52.45 795.11,-54.69 793.76,-56.94 792.16,-59.2 790.31,-61.47 788.23,-63.74 785.9,-66 783.34,-68.24 780.56,-70.46 777.55,-72.65 774.33,-74.8 770.89,-76.9 767.25,-78.95 763.41,-80.93 759.38,-82.84 755.16,-84.67 750.75,-86.41 746.17,-88.05 741.43,-89.58 736.53,-91 731.47,-92.31 726.28,-93.48 720.95,-94.52 715.5,-95.42 709.93,-96.17 704.27,-96.77 698.51,-97.22 692.68,-97.51 686.79,-97.64 680.84,-97.61 674.86,-97.41 668.85,-97.04 662.84,-96.51 656.84,-95.82 650.86,-94.96 644.93,-93.95 639.06,-92.78 633.26,-91.45 627.56,-89.99 621.98,-88.38 616.52,-86.63 611.22,-84.76 606.09,-82.77 601.15,-80.67 596.41,-78.47 591.89,-76.17 587.62,-73.79 583.6,-71.34 579.86,-68.82 576.4,-66.25"/>
<text text-anchor="middle" x="684.39" y="-45.08" font-family="sans-serif" font-size="16.00">gestionPedidos</text>
</g>
</g>
</svg>
